<?xml version="1.0" standalone="no"?>
<!DOCTYPE svg PUBLIC "-//W3C//DTD SVG 20010904//EN"
 "http://www.w3.org/TR/2001/REC-SVG-20010904/DTD/svg10.dtd">
<svg version="1.0" xmlns="http://www.w3.org/2000/svg"
 width="300.000000pt" height="300.000000pt" viewBox="0 0 300.000000 300.000000"
 preserveAspectRatio="xMidYMid meet">
<metadata>
Created by potrace 1.10, written by Peter Selinger 2001-2011
</metadata>
<g transform="translate(0.000000,300.000000) scale(0.100000,-0.100000)"
fill="#000000" stroke="none">
<path d="M2070 2245 l0 -435 -205 0 -206 0 3 -77 3 -78 172 -5 171 -5 -32 -85
c-69 -176 -189 -393 -288 -517 l-50 -64 37 -72 c21 -40 41 -76 45 -80 8 -9
103 112 151 193 42 71 139 268 170 344 l24 59 3 -401 2 -402 80 0 80 0 0 412
c0 251 4 408 9 403 18 -19 204 -367 246 -461 24 -53 45 -98 48 -100 2 -3 32
26 65 64 l61 68 -19 30 c-10 16 -62 101 -115 189 -54 88 -136 218 -182 288
-45 70 -83 130 -83 133 0 2 81 4 180 4 l180 0 0 80 0 80 -195 0 -195 0 0 435
0 435 -80 0 -80 0 0 -435z"/>
<path d="M312 2493 l3 -78 138 -3 137 -3 0 -159 0 -160 -110 0 -110 0 0 -875
0 -875 60 0 60 0 0 85 0 85 260 0 260 0 0 -70 0 -70 60 0 60 0 0 860 0 860
-95 0 -95 0 0 160 0 159 118 3 117 3 3 78 3 77 -436 0 -436 0 3 -77z m498
-244 l0 -160 -47 3 -48 3 -3 158 -3 157 51 0 50 0 0 -161z m-200 -478 c0 -162
-16 -284 -46 -356 -19 -46 -56 -105 -66 -105 -10 0 -11 604 -1 613 3 4 30 7
60 7 l53 0 0 -159z m200 -103 c6 -307 0 -291 120 -296 l80 -4 0 -139 0 -139
-260 0 -260 0 0 85 c0 47 3 85 7 85 4 0 17 -10 30 -22 22 -21 23 -21 44 -2 31
28 95 169 115 254 11 50 18 136 22 258 l4 183 47 -3 46 -3 5 -257z m195 32 l0
-225 -45 0 -45 0 -3 228 -2 228 47 -3 48 -3 0 -225z m0 -899 l0 -133 -250 1
c-137 0 -253 1 -257 1 -5 0 -8 61 -8 135 l0 135 258 -2 257 -3 0 -134z"/>
<path d="M2474 2503 c-28 -125 -123 -458 -149 -525 -5 -13 4 -19 48 -32 30 -9
59 -16 65 -16 19 0 191 546 176 560 -11 9 -103 40 -121 40 -7 0 -15 -12 -19
-27z"/>
<path d="M1713 2492 l-52 -17 25 -60 c36 -88 109 -318 129 -407 9 -43 21 -78
26 -78 6 0 37 8 70 18 l61 17 -6 40 c-7 52 -77 272 -128 403 -45 113 -42 111
-125 84z"/>
<path d="M1291 2454 c-30 -13 -56 -26 -58 -28 -2 -1 30 -68 70 -147 41 -79 92
-190 114 -246 l40 -103 71 35 72 34 -21 53 c-59 153 -203 428 -223 427 -6 0
-36 -11 -65 -25z"/>
<path d="M1230 1726 l0 -75 93 -3 92 -3 2 -455 3 -455 -51 -34 c-50 -34 -219
-206 -219 -223 0 -8 109 -158 116 -158 1 0 26 39 55 87 29 48 76 111 104 140
67 69 91 70 172 7 247 -193 376 -226 815 -208 124 5 229 11 232 14 2 3 11 37
20 75 8 39 18 79 22 89 7 17 4 18 -24 13 -18 -4 -135 -12 -261 -18 -414 -21
-544 10 -763 178 l-58 44 -2 527 -3 527 -172 3 -173 2 0 -74z"/>
</g>
</svg>
